<svg width="40" height="40" viewBox="0 0 40 40" fill="none" xmlns="http://www.w3.org/2000/svg">
<path d="M30 6.66663H10C8.15906 6.66663 6.66667 8.15901 6.66667 9.99996V30C6.66667 31.8409 8.15906 33.3333 10 33.3333H30C31.841 33.3333 33.3333 31.8409 33.3333 30V9.99996C33.3333 8.15901 31.841 6.66663 30 6.66663Z" stroke="white" stroke-width="3.33333" stroke-linecap="round" stroke-linejoin="round"/>
<path d="M23.3333 15H16.6667C15.7462 15 15 15.7462 15 16.6667V23.3333C15 24.2538 15.7462 25 16.6667 25H23.3333C24.2538 25 25 24.2538 25 23.3333V16.6667C25 15.7462 24.2538 15 23.3333 15Z" stroke="white" stroke-width="3.33333" stroke-linecap="round" stroke-linejoin="round"/>
<path d="M25 3.33337V6.66671" stroke="white" stroke-width="3.33333" stroke-linecap="round" stroke-linejoin="round"/>
<path d="M25 33.3334V36.6667" stroke="white" stroke-width="3.33333" stroke-linecap="round" stroke-linejoin="round"/>
<path d="M3.33333 25H6.66666" stroke="white" stroke-width="3.33333" stroke-linecap="round" stroke-linejoin="round"/>
<path d="M3.33333 15H6.66666" stroke="white" stroke-width="3.33333" stroke-linecap="round" stroke-linejoin="round"/>
<path d="M33.3333 25H36.6667" stroke="white" stroke-width="3.33333" stroke-linecap="round" stroke-linejoin="round"/>
<path d="M33.3333 15H36.6667" stroke="white" stroke-width="3.33333" stroke-linecap="round" stroke-linejoin="round"/>
<path d="M15 3.33337V6.66671" stroke="white" stroke-width="3.33333" stroke-linecap="round" stroke-linejoin="round"/>
<path d="M15 33.3334V36.6667" stroke="white" stroke-width="3.33333" stroke-linecap="round" stroke-linejoin="round"/>
</svg>
